# AST/ASF file generated using VICON BodyLanguage
# -----------------------------------------------
:version 1.10
:name VICON
:units
  mass 1.0
  length 0.45
  angle deg
:documentation
   .ast/.asf automatically generated from VICON data using
   VICON BodyBuilder and BodyLanguage model FoxedUp or BRILLIANT.MOD
:root
   order TX TY TZ RX RY RZ
   axis XYZ
   position 0 0 0  
   orientation 0 0 0 
:bonedata
  begin
     id 1 
     name lhipjoint
     direction 0.440178 -0.822639 0.359871 
     length 2.53113 
     axis 0 0 0  XYZ
  end
  begin
     id 2 
     name lfemur
     direction 0.34202 -0.939693 0  
     length 7.88132  
     axis 0 0 20  XYZ
    dof rx ry rz
    limits (-160.0 20.0)
           (-70.0 70.0)
           (-60.0 70.0)
  end
  begin
     id 3 
     name ltibia
     direction 0.34202 -0.939693 0   
     length 8.43783   
     axis 0 0 20   XYZ
    dof rx
    limits (-10.0 170.0)
  end
  begin
     id 4 
     name lfoot
     direction 0.0886351 -0.243523 0.965837   
     length 2.63414   
     axis -90 7.62852e-016 20   XYZ
    dof rx rz
    limits (-45.0 90.0)
           (-70.0 20.0)
  end
  begin
     id 5 
     name ltoes
     direction 1.53703e-011 -4.21717e-011 1   
     length 1.31427   
     axis -90 7.62852e-016 20   XYZ
    dof rx
    limits (-90.0 20.0)
  end
  begin
     id 6 
     name rhipjoint
     direction -0.399779 -0.839773 0.367367   
     length 2.47948  
     axis 0 0 0  XYZ 
  end
  begin
     id 7 
     name rfemur
     direction -0.34202 -0.939693 0   
     length 7.74806   
     axis 0 0 -20   XYZ
    dof rx ry rz
    limits (-160.0 20.0)
           (-70.0 70.0)
           (-70.0 60.0)
  end
  begin
     id 8 
     name rtibia
     direction -0.34202 -0.939693 0   
     length 8.74432   
     axis 0 0 -20   XYZ
    dof rx
    limits (-10.0 170.0)
 end
 begin
     id 9 
     name rfoot
     direction -0.108514 -0.298139 0.948334   
     length 2.66102  
     axis -90 -7.62852e-016 -20   XYZ
    dof rx rz
    limits (-45.0 90.0)
           (-20.0 70.0)
  end
  begin
     id 10 
     name rtoes
     direction -1.53392e-011 -4.22077e-011 1   
     length 1.31983   
     axis -90 -7.62852e-016 -20   XYZ
    dof rx
    limits (-90.0 20.0)
  end
  begin
     id 11 
     name lowerback
     direction 0.0113257 0.999866 0.0118602   
     length 2.58694   
     axis 0 0 0   XYZ
    dof rx ry rz
    limits (-20.0 45.0)
           (-30.0 30.0)
           (-30.0 30.0)
  end
  begin
     id 12 
     name upperback
     direction -0.0164747 0.995193 -0.0965375   
     length 2.52368   
     axis 0 0 0   XYZ
    dof rx ry rz
    limits (-20.0 45.0)
           (-30.0 30.0)
           (-30.0 30.0)
  end
  begin
     id 13 
     name thorax
     direction -0.0194301 0.99433 -0.104552   
     length 2.56099   
     axis 0 0 0   XYZ
    dof rx ry rz
    limits (-20.0 45.0)
           (-30.0 30.0)
           (-30.0 30.0)
  end
  begin
     id 14 
     name lowerneck
     direction 0.0148543 0.995587 -0.092657   
     length 1.71582   
     axis 0 0 0   XYZ
    dof rx ry rz
    limits (-20.0 45.0)
           (-30.0 30.0)
           (-30.0 30.0)
  end
  begin
     id 15 
     name upperneck
     direction -0.0135467 0.993656 -0.111639   
     length 1.68937   
     axis 0 0 0   XYZ
    dof rx ry rz
    limits (-20.0 45.0)
           (-30.0 30.0)
           (-30.0 30.0)
  end
  begin
     id 16
     name head
     direction -0.00615349 0.999547 -0.029448  
     length 1.7462  
     axis 0 0 0   XYZ
    dof rx ry rz
    limits (-20.0 45.0)
           (-30.0 30.0)
           (-30.0 30.0)
  end
  begin
     id 17 
     name lclavicle
     direction 0.988267 0.149885 0.0293713  
     length 4.47222  
     axis 0 0 0   XYZ
    dof ry rz
    limits (-20.0 10.0)
           (0.0 20.0)
  end
  begin
     id 18 
     name lhumerus
     direction 1 -4.48986e-011 -1.14833e-027   
     length 5.37148   
     axis 180 -30 -90   XYZ
    dof rx ry rz
    limits (-60.0 90.0)
           (-90.0 90.0)
           (-90.0 90.0)
  end
  begin
     id 19
     name lradius
     direction 0.999998 0.00170963 -0.000987055   
     length 3.94212   
     axis 180 -30 -90   XYZ
    dof rx
    limits (-10.0 170.0)
  end
  begin
     id 20
     name lwrist
     direction 0.999998 7.53149e-005 -0.00194706   
     length 1.97106   
     axis 4.65056e-015 90 90   XYZ
    dof ry
    limits (-180.0 0.0)
 end
  begin
     id 21 
     name lhand
     direction 1 -4.48973e-011 -1.31746e-026   
     length 1.17917   
     axis 8.4065e-015 90 90   XYZ
    dof rx rz
    limits (-90.0 90.0)
           (-45.0 45.0)
  end
  begin
     id 22 
     name lfingers
     direction 1 -4.49107e-011 -2.63492e-026   
     length 0.950679   
     axis 1.6813e-014 90 90   XYZ
    dof rx
    limits (0.0 90.0)
  end
  begin
     id 23
     name lthumb
     direction 0.707107 -6.35048e-011 0.707107   
     length 1.36499   
     axis -90 45 2.85299e-015   XYZ
    dof rx rz
    limits (-45.0 45.0)
           (-45.0 45.0)
  end
  begin
     id 24 
     name rclavicle
     direction -0.996699 0.0642895 -0.0495725   
     length 4.62611  
     axis 0 0 0   XYZ 
    dof ry rz
    limits (-10.0 20.0)
           (-20.0 0.0)
  end
  begin
     id 25 
     name rhumerus
     direction -1 -4.48919e-011 -2.41059e-027  
     length 5.4981   
     axis 180 30 90   XYZ
    dof rx ry rz
    limits (-90.0 60.0)
           (-90.0 90.0)
           (-90.0 90.0)
  end
  begin
     id 26 
     name rradius
     direction -0.999999 0.00118101 -0.000681858   
     length 3.48381   
     axis 180 30 90   XYZ
    dof rx
    limits (-10.0 170.0)
  end
  begin
     id 27 
     name rwrist
     direction -0.999999 0.000321823 -0.00132288   
     length 1.7419   
     axis 4.65056e-015 -90 -90   XYZ
    dof ry
    limits (-180.0 0.0)
  end
  begin
     id 28
     name rhand
     direction -1 -4.49022e-011 -1.31746e-026   
     length 1.34932   
     axis 8.4065e-015 -90 -90   XYZ
    dof rx rz
    limits (-90.0 90.0)
           (-45.0 45.0)
  end
  begin
     id 29
     name rfingers
     direction -1 -4.49178e-011 -2.63492e-026   
     length 1.08785   
     axis 1.6813e-014 -90 -90   XYZ
    dof rx
    limits (0.0 90.0)
  end
  begin
     id 30
     name rthumb
     direction -0.707107 -6.34713e-011 0.707107   
     length 1.56195   
     axis -90 -45 -2.85299e-015   XYZ
    dof rx rz
    limits (-45.0 45.0)
           (-45.0 45.0)
  end
:hierarchy
  begin
    root lhipjoint rhipjoint lowerback
    lhipjoint lfemur
    lfemur ltibia
    ltibia lfoot
    lfoot ltoes
    rhipjoint rfemur
    rfemur rtibia
    rtibia rfoot
    rfoot rtoes
    lowerback upperback
    upperback thorax
    thorax lowerneck lclavicle rclavicle
    lowerneck upperneck
    upperneck head
    lclavicle lhumerus
    lhumerus lradius
    lradius lwrist
    lwrist lhand lthumb
    lhand lfingers
    rclavicle rhumerus
    rhumerus rradius
    rradius rwrist
    rwrist rhand rthumb
    rhand rfingers
  end

#!OML:ASF X:\für Bonn\!DataBase\2005_08_10_Bjorn_Final\c3d\bjorn.ASF
:FULLY-SPECIFIED
:DEGREES
16
root 0.424194 19.1987 2.82416 -176.988 -0.0400023 -179.514
lowerback -14.3698 1.94651 1.72537
upperback 4.48807 2.28319 -0.200774
thorax 13.1636 1.20907 -0.618046
lowerneck -5.69661 -0.834572 4.12391
upperneck 18.0866 -1.70509 -4.61684
head 6.34073 -1.25026 -2.31953
rclavicle -1.00309e-014 1.2424e-017
rhumerus 62.825 -0.0992122 -89.1856
rradius 0.653783
rwrist 54.557
rhand -19.3442 2.81423
rfingers 7.12502
rthumb 6.97289 -27.0509
lclavicle -1.00309e-014 1.2424e-017
lhumerus 61.0297 -12.6436 90.3479
lradius 4.8637
lwrist -67.6516
lhand -20.0532 -3.424
lfingers 7.12502
lthumb 6.28846 26.4627
rfemur -14.3954 -12.1184 17.1071
rtibia 31.0195
rfoot -17.213 11.821
rtoes -6.93962
lfemur -13.7811 6.4985 -17.7289
ltibia 30.9979
lfoot -15.5693 -7.43331
ltoes -2.054
17
root 0.430855 19.1998 2.83036 -176.919 0.0318093 -179.515
lowerback -13.9956 1.94418 1.78241
upperback 4.45505 2.33416 -0.251192
thorax 12.9044 1.26151 -0.700602
lowerneck -5.90848 -0.852255 4.08362
upperneck 18.1047 -1.72527 -4.57742
head 6.38347 -1.25606 -2.30417
rclavicle 4.41985e-015 -1.21756e-015
rhumerus 62.9973 -0.122015 -89.1796
rradius 0.736422
rwrist 54.6487
rhand -19.3525 2.92678
rfingers 7.12502
rthumb 6.96486 -26.9386
lclavicle 4.41985e-015 -1.21756e-015
lhumerus 61.3331 -12.6774 90.1849
lradius 4.94139
lwrist -67.3837
lhand -20.0666 -3.53732
lfingers 7.12502
lthumb 6.27554 26.3497
rfemur -14.5205 -11.9116 17.1691
rtibia 31.0616
rfoot -17.3214 11.5889
rtoes -7.33534
lfemur -13.8713 6.0292 -17.7562
ltibia 31.0234
lfoot -15.6342 -6.80168
ltoes -2.48487
18
root 0.437001 19.2006 2.83794 -176.828 0.099758 -179.498
lowerback -13.6341 1.96535 1.83301
upperback 4.43257 2.36457 -0.274768
thorax 12.6641 1.28196 -0.759377
lowerneck -6.11867 -0.869362 4.05333
upperneck 18.0872 -1.73378 -4.59225
head 6.41431 -1.25866 -2.30625
rclavicle -7.8551e-015 3.55328e-015
rhumerus 63.1685 -0.121863 -89.1461
rradius 0.889214
rwrist 54.6792
rhand -19.3053 3.09001
rfingers 7.12502
rthumb 7.01045 -26.7739
lclavicle -7.8551e-015 3.55328e-015
lhumerus 61.6715 -12.6736 90.036
lradius 4.97855
lwrist -67.139
lhand -20.2445 -3.64153
lfingers 7.12502
lthumb 6.10373 26.2505
rfemur -14.6813 -11.6078 17.2543
rtibia 31.1253
rfoot -17.4099 11.2841
rtoes -7.63709
lfemur -14.0026 5.57583 -17.7645
ltibia 31.0694
lfoot -15.6955 -6.16617
ltoes -2.85116
19
root 0.443541 19.2011 2.84615 -176.758 0.181878 -179.499
lowerback -13.2504 1.99528 1.86808
upperback 4.42632 2.41165 -0.302271
thorax 12.4296 1.30959 -0.810207
lowerneck -6.32728 -0.899203 4.00275
upperneck 18.0458 -1.75454 -4.61029
head 6.4368 -1.2679 -2.30626
rclavicle -2.16178e-014 2.48481e-017
rhumerus 63.3767 -0.140214 -89.1002
rradius 0.976964
rwrist 54.6683
rhand -19.3476 3.35645
rfingers 7.12502
rthumb 6.96959 -26.5088
lclavicle -2.16178e-014 2.48481e-017
lhumerus 62.0361 -12.6952 89.8983
lradius 5.0028
lwrist -67.0288
lhand -20.4375 -3.70469
lfingers 7.12502
lthumb 5.91746 26.1927
rfemur -14.8419 -11.3416 17.3131
rtibia 31.2142
rfoot -17.5154 11.0327
rtoes -7.934
lfemur -14.1273 5.09246 -17.7904
ltibia 31.1453
lfoot -15.7529 -5.51206
ltoes -3.20278
20
root 0.449633 19.1997 2.85611 -176.678 0.281425 -179.482
lowerback -12.8246 2.03232 1.92493
upperback 4.39527 2.46455 -0.326586
thorax 12.143 1.34095 -0.870805
lowerneck -6.482 -0.930095 3.96152
upperneck 17.9898 -1.77754 -4.63406
head 6.44495 -1.27857 -2.30892
rclavicle -2.97245e-014 1.11816e-015
rhumerus 63.5588 -0.145129 -89.0627
rradius 1.0058
rwrist 54.6552
rhand -19.4587 3.58448
rfingers 7.12502
rthumb 6.86234 -26.2843
lclavicle -2.97245e-014 1.11816e-015
lhumerus 62.3708 -12.7296 89.7771
lradius 5.00071
lwrist -66.9206
lhand -20.702 -3.65021
lfingers 7.12502
lthumb 5.6621 26.2541
rfemur -15.0424 -11.1543 17.3959
rtibia 31.334
rfoot -17.6226 10.8452
rtoes -8.43826
lfemur -14.2794 4.63395 -17.7957
ltibia 31.2519
lfoot -15.7857 -4.84605
ltoes -3.49884
21
root 0.455433 19.1959 2.86731 -176.607 0.391146 -179.462
lowerback -12.3754 2.07394 1.99119
upperback 4.37198 2.52378 -0.353704
thorax 11.8529 1.37632 -0.939415
lowerneck -6.60117 -0.961985 3.96877
upperneck 17.8997 -1.79778 -4.70988
head 6.43498 -1.2883 -2.33501
rclavicle -4.54099e-015 -3.97569e-015
rhumerus 63.7989 -0.155248 -89.0227
rradius 0.941012
rwrist 54.607
rhand -19.6081 3.82363
rfingers 7.12502
rthumb 6.71813 -26.0498
lclavicle -4.54099e-015 -3.97569e-015
lhumerus 62.7097 -12.7907 89.6663
lradius 4.96959
lwrist -66.8772
lhand -20.9933 -3.52984
lfingers 7.12502
lthumb 5.38082 26.3818
rfemur -15.2555 -10.9928 17.4705
rtibia 31.4902
rfoot -17.6904 10.7273
rtoes -8.69078
lfemur -14.4423 4.19799 -17.7976
ltibia 31.3888
lfoot -15.842 -4.23131
ltoes -3.56459
22
root 0.46025 19.193 2.8793 -176.507 0.501059 -179.447
lowerback -11.9495 2.09402 2.0225
upperback 4.36702 2.5563 -0.341726
thorax 11.5935 1.39489 -0.951135
lowerneck -6.76426 -0.982834 3.87017
upperneck 17.784 -1.78943 -4.76667
head 6.42708 -1.28827 -2.33523
rclavicle 1.55269e-014 3.37934e-015
rhumerus 64.1166 -0.0879895 -88.9358
rradius 0.804184
rwrist 54.5153
rhand -19.8801 4.11961
rfingers 7.12502
rthumb 6.45552 -25.762
lclavicle 1.55269e-014 3.37934e-015
lhumerus 63.0711 -12.7718 89.5909
lradius 4.94171
lwrist -66.8746
lhand -21.3536 -3.36161
lfingers 7.12502
lthumb 5.03297 26.5586
rfemur -15.5287 -10.8374 17.5506
rtibia 31.6813
rfoot -17.7964 10.5568
rtoes -9.26838
lfemur -14.6696 3.79242 -17.8059
ltibia 31.571
lfoot -15.8782 -3.61379
ltoes -3.93132
23
root 0.465572 19.1878 2.89199 -176.427 0.622185 -179.449
lowerback -11.4641 2.13351 2.06274
upperback 4.3459 2.61953 -0.372017
thorax 11.2848 1.4304 -1.01009
lowerneck -6.82354 -1.02436 3.89882
upperneck 17.6232 -1.81788 -4.87099
head 6.38316 -1.30133 -2.37225
rclavicle -1.57785e-015 -1.14301e-015
rhumerus 64.357 -0.0801533 -88.9013
rradius 0.731861
rwrist 54.4361
rhand -20.1139 4.36254
rfingers 7.12502
rthumb 6.22987 -25.5259
lclavicle -1.57785e-015 -1.14301e-015
lhumerus 63.3822 -12.8149 89.4786
lradius 4.89996
lwrist -66.9519
lhand -21.6563 -3.13825
lfingers 7.12502
lthumb 4.74063 26.7887
rfemur -15.8018 -10.606 17.6038
rtibia 31.9173
rfoot -17.921 10.3884
rtoes -9.59974
lfemur -14.8922 3.37615 -17.8294
ltibia 31.7993
lfoot -15.9384 -2.99166
ltoes -4.06094
